<?xml version="1.0" standalone="no"?><!DOCTYPE svg PUBLIC "-//W3C//DTD SVG 1.1//EN" "http://www.w3.org/Graphics/SVG/1.1/DTD/svg11.dtd"><svg t="1680485700555" class="icon" viewBox="0 0 1024 1024" version="1.1" xmlns="http://www.w3.org/2000/svg" p-id="867" xmlns:xlink="http://www.w3.org/1999/xlink" width="200" height="200"><path d="M510.293333 467.626667l-14.72 4.266666C542.08 820.693333 353.706667 874.666667 353.706667 874.666667a38.4 38.4 0 0 0 8.96 37.12 40.96 40.96 0 0 0 32.213333 9.386666s191.36-110.506667 115.413333-453.546666z" fill="#67ad5b" p-id="868"></path><path d="M842.88 369.706667C780.373333 432.213333 528.213333 465.706667 512 448s16-268.8 79.146667-331.733333c69.76-69.76 141.44-15.36 173.653333 78.933333 94.08 32.853333 147.84 104.746667 78.08 174.506667zM181.12 526.293333C243.626667 463.786667 495.786667 430.293333 512 448s-16 268.8-79.146667 331.733333c-69.76 69.76-141.44 15.36-173.653333-78.933333-94.08-32.853333-147.84-104.746667-78.08-174.506667z" fill="#67ad5b" p-id="869"></path><path d="M433.706667 117.12C496.213333 179.626667 529.706667 431.786667 512 448s-268.8-16-331.733333-79.146667c-69.76-69.76-15.36-141.44 78.933333-173.653333 32.853333-94.08 104.746667-147.84 174.506667-78.08zM590.293333 778.88C527.786667 716.373333 494.293333 464.213333 512 448s268.8 16 331.733333 79.146667c69.76 69.76 15.36 141.44-78.933333 173.653333-32.853333 94.08-104.746667 147.84-174.506667 78.08z" fill="#67ad5b" p-id="870"></path></svg>